<?xml version="1.0" encoding="UTF-8"?>
<!DOCTYPE svg PUBLIC "-//W3C//DTD SVG 1.1//EN" "http://www.w3.org/Graphics/SVG/1.1/DTD/svg11.dtd">
<svg version="1.1" xmlns="http://www.w3.org/2000/svg" xmlns:xlink="http://www.w3.org/1999/xlink" x="0" y="0" width="1000" height="509.434" viewBox="0, 0, 1000, 509.434">
  <g id="Layer_1" transform="translate(0, 0)">
    <path d="M1000,321.125 C1000,327.144 999.704,333.284 999.108,339.371 L998.168,349.029 L988.391,349.029 L670.638,349.033 C683.783,414.288 741.707,462.152 810.044,462.152 C860.142,462.152 906.294,435.987 931.957,393.566 L985.455,393.566 L983.489,397.934 C952.931,465.666 884.845,509.434 810.045,509.434 C759.311,509.434 711.601,489.848 675.724,454.284 C639.841,418.716 620.096,371.426 620.096,321.126 C620.096,217.287 705.31,132.808 810.045,132.808 C860.785,132.808 908.483,152.395 944.362,187.965 C980.239,223.534 1000,270.821 1000,321.125 z M951.232,304.329 C942.872,233.834 882.906,180.107 810.045,180.107 C737.175,180.107 677.226,233.834 668.866,304.329 z M324.276,187.545 C360.155,223.112 379.916,270.4 379.916,320.702 C379.916,326.718 379.614,332.858 379.025,338.948 L378.086,348.605 L368.297,348.605 L50.544,348.605 C63.696,413.872 121.615,461.721 189.959,461.721 C239.856,461.721 285.892,435.731 311.616,393.566 L365.192,393.566 L363.2,397.952 C332.544,465.415 264.542,509.019 189.959,509.019 C139.218,509.019 91.518,489.429 55.638,453.861 C19.759,418.293 0,370.999 0,320.702 C0,216.863 85.217,132.388 189.959,132.388 C240.7,132.388 288.401,151.978 324.276,187.545 z M331.141,303.907 C322.778,233.412 262.82,179.684 189.959,179.684 C117.096,179.684 57.135,233.412 48.778,303.907 z M646.714,97.529 L646.714,142.355 L598.424,142.355 L598.424,504.441 L550.189,504.441 L550.189,0 L598.424,0 L598.424,97.529 z M476.053,504.444 L476.053,142.365 L523.254,142.365 L523.254,504.444 z M476.053,97.541 L476.053,0.01 L523.254,0.01 L523.254,97.541 z M402.172,504.446 L402.172,0.012 L449.307,0.012 L449.307,504.446 z" fill="#FFFFFF" id="Layer_1"/>
  </g>
</svg>
