<?xml version="1.0" encoding="UTF-8"?>
<!DOCTYPE svg PUBLIC "-//W3C//DTD SVG 1.1//EN" "http://www.w3.org/Graphics/SVG/1.1/DTD/svg11.dtd">
<svg version="1.1" xmlns="http://www.w3.org/2000/svg" xmlns:xlink="http://www.w3.org/1999/xlink" x="0" y="0" width="24" height="24" viewBox="0, 0, 24, 24">
  <g id="Layer_1" transform="translate(0, 0)">
    <path d="M23.674,20.753 L19,16.079 C18.789,15.868 18.503,15.751 18.203,15.751 L17.439,15.751 C18.733,14.096 19.501,12.015 19.501,9.751 C19.501,4.364 15.137,-0 9.751,-0 C4.364,-0 -0,4.364 -0,9.751 C-0,15.137 4.364,19.501 9.751,19.501 C12.015,19.501 14.096,18.733 15.751,17.439 L15.751,18.203 C15.751,18.503 15.868,18.789 16.079,19 L20.753,23.674 C21.194,24.114 21.906,24.114 22.342,23.674 L23.669,22.347 C24.11,21.906 24.11,21.194 23.674,20.753 z M9.751,15.751 C6.436,15.751 3.75,13.07 3.75,9.751 C3.75,6.436 6.432,3.75 9.751,3.75 C13.065,3.75 15.751,6.432 15.751,9.751 C15.751,13.065 13.07,15.751 9.751,15.751 z" fill="#FFFFFF" id="Layer_1"/>
  </g>
</svg>
