<?xml version="1.0" encoding="UTF-8"?>
<!DOCTYPE svg PUBLIC "-//W3C//DTD SVG 1.1//EN" "http://www.w3.org/Graphics/SVG/1.1/DTD/svg11.dtd">
<svg version="1.1" xmlns="http://www.w3.org/2000/svg" xmlns:xlink="http://www.w3.org/1999/xlink" x="0" y="0" width="20" height="20" viewBox="0, 0, 20, 20">
  <g id="Layer_1" transform="translate(-2, -2.002)">
    <path d="M14.975,12.002 L21.707,5.269 C22.097,4.88 22.097,4.248 21.707,3.858 L20.143,2.294 C19.754,1.904 19.122,1.904 18.732,2.294 L12,9.027 L5.267,2.294 C4.878,1.905 4.246,1.905 3.856,2.294 L2.292,3.858 C1.903,4.248 1.903,4.879 2.292,5.269 L9.025,12.002 L2.292,18.735 C1.903,19.124 1.903,19.756 2.292,20.146 L3.856,21.71 C4.246,22.1 4.878,22.1 5.268,21.71 L12,14.977 L18.732,21.71 C19.122,22.099 19.754,22.099 20.144,21.71 L21.708,20.145 C22.097,19.756 22.097,19.124 21.708,18.734 L14.975,12.002 z" fill="#000000" id="Layer_1"/>
  </g>
</svg>
