<?xml version="1.0" encoding="UTF-8"?>
<!DOCTYPE svg PUBLIC "-//W3C//DTD SVG 1.1//EN" "http://www.w3.org/Graphics/SVG/1.1/DTD/svg11.dtd">
<svg version="1.1" xmlns="http://www.w3.org/2000/svg" xmlns:xlink="http://www.w3.org/1999/xlink" x="0" y="0" width="24" height="24" viewBox="0, 0, 24, 24">
  <g id="Layer_1" transform="translate(-0, -0)">
    <path d="M15.57,12 L23.649,3.921 C24.116,3.454 24.116,2.696 23.649,2.228 L21.772,0.35 C21.304,-0.117 20.546,-0.117 20.078,0.35 L12,8.43 L3.92,0.351 C3.453,-0.116 2.695,-0.116 2.227,0.351 L0.35,2.228 C-0.117,2.695 -0.117,3.453 0.35,3.921 L8.43,12 L0.35,20.08 C-0.117,20.547 -0.117,21.305 0.35,21.773 L2.228,23.65 C2.695,24.118 3.453,24.118 3.921,23.65 L12,15.57 L20.079,23.65 C20.546,24.117 21.304,24.117 21.772,23.65 L23.65,21.772 C24.117,21.305 24.117,20.547 23.65,20.079 L15.57,12 z" fill="#FFFFFF" id="Layer_1"/>
  </g>
</svg>
